<?xml version="1.0" encoding="UTF-8" standalone="no"?>
<svg
   version="1.1"
   x="0px"
   y="0px"
   viewBox="0 0 64 64"
   enable-background="new 0 0 64 64"
   xml:space="preserve"
   id="svg12"
   width="64"
   height="64"
   xmlns="http://www.w3.org/2000/svg"
   xmlns:svg="http://www.w3.org/2000/svg"><defs
     id="defs16" /><g
     id="g6"><path
       d="M 17.586,46.414 C 17.977,46.805 18.488,47 19,47 c 0.512,0 1.023,-0.195 1.414,-0.586 L 32,34.828 43.586,46.414 C 43.977,46.805 44.488,47 45,47 c 0.512,0 1.023,-0.195 1.414,-0.586 0.781,-0.781 0.781,-2.047 0,-2.828 L 34.828,32 46.414,20.414 c 0.781,-0.781 0.781,-2.047 0,-2.828 -0.781,-0.781 -2.047,-0.781 -2.828,0 L 32,29.172 20.414,17.586 c -0.781,-0.781 -2.047,-0.781 -2.828,0 -0.781,0.781 -0.781,2.047 0,2.828 L 29.172,32 17.586,43.586 c -0.781,0.781 -0.781,2.047 0,2.828 z"
       id="path2" /><path
       d="M 32,64 C 40.547,64 48.583,60.671 54.626,54.627 60.671,48.583 64,40.547 64,32 64,23.453 60.671,15.417 54.626,9.374 48.583,3.329 40.547,0 32,0 23.453,0 15.417,3.329 9.374,9.373 3.329,15.417 0,23.453 0,32 0,40.547 3.329,48.583 9.374,54.626 15.417,60.671 23.453,64 32,64 Z M 12.202,12.202 C 17.49,6.913 24.521,4 32,4 39.479,4 46.51,6.913 51.798,12.202 57.087,17.49 60,24.521 60,32 60,39.479 57.087,46.51 51.798,51.798 46.51,57.087 39.479,60 32,60 24.521,60 17.49,57.087 12.202,51.798 6.913,46.51 4,39.479 4,32 4,24.521 6.913,17.49 12.202,12.202 Z"
       id="path4" /></g></svg>
